<svg width="22" height="20" viewBox="0 0 22 20" fill="none" xmlns="http://www.w3.org/2000/svg">
<path fill-rule="evenodd" clip-rule="evenodd" d="M6.87501 0.802587C8.54496 0.127175 10.3553 -0.127842 12.1469 0.0599424C13.9385 0.247727 15.6565 0.872565 17.1501 1.87956C18.6436 2.88655 19.867 4.24487 20.7126 5.83518C21.5583 7.4255 22.0004 9.19912 22 11.0002C22 11.3243 21.8712 11.6351 21.642 11.8643C21.4128 12.0935 21.1019 12.2222 20.7778 12.2222C20.4536 12.2222 20.1427 12.0935 19.9135 11.8643C19.6843 11.6351 19.5556 11.3243 19.5556 11.0002C19.5561 9.59921 19.2125 8.21952 18.5549 6.98237C17.8973 5.74523 16.9458 4.68852 15.7841 3.9051C14.6224 3.12168 13.2861 2.63554 11.8925 2.4894C10.4988 2.34325 9.09067 2.54159 7.79167 3.06696C7.64191 3.13308 7.48038 3.16843 7.31669 3.17094C7.153 3.17344 6.99047 3.14304 6.83875 3.08153C6.68704 3.02003 6.54922 2.92867 6.4335 2.8129C6.31777 2.69712 6.22649 2.55928 6.16506 2.40755C6.10364 2.25582 6.07333 2.0933 6.07594 1.92964C6.07854 1.76598 6.114 1.6045 6.18022 1.45481C6.24644 1.30511 6.34206 1.17024 6.46141 1.0582C6.58076 0.946161 6.72141 0.859236 6.87501 0.802587ZM4.47578 3.61809C4.71864 3.83253 4.86639 4.13462 4.88656 4.45795C4.90673 4.78128 4.79766 5.09938 4.58334 5.34233C3.20206 6.90315 2.44108 8.91614 2.44445 11.0002C2.44445 11.3243 2.31568 11.6351 2.08647 11.8643C1.85726 12.0935 1.54638 12.2222 1.22223 12.2222C0.898077 12.2222 0.5872 12.0935 0.357989 11.8643C0.128778 11.6351 8.86496e-06 11.3243 8.86496e-06 11.0002C-0.00339735 8.32081 0.974887 5.73294 2.75001 3.72562C2.85623 3.60521 2.98514 3.50691 3.12937 3.43634C3.27361 3.36576 3.43034 3.3243 3.59061 3.31431C3.75088 3.30432 3.91155 3.32601 4.06343 3.37813C4.21531 3.43026 4.35543 3.5118 4.47578 3.61809Z" fill="#003DF6"/>
<path fill-rule="evenodd" clip-rule="evenodd" d="M5.47595 11.4363C5.47595 9.87663 6.11464 8.38088 7.25153 7.27805C8.38842 6.17523 9.93037 5.55566 11.5382 5.55566C13.146 5.55566 14.6879 6.17523 15.8248 7.27805C16.9617 8.38088 17.6004 9.87663 17.6004 11.4363C17.6004 11.7482 17.4727 12.0473 17.2453 12.2679C17.0179 12.4885 16.7095 12.6124 16.3879 12.6124C16.0664 12.6124 15.758 12.4885 15.5306 12.2679C15.3032 12.0473 15.1755 11.7482 15.1755 11.4363C15.1755 10.5005 14.7923 9.60303 14.1102 8.94134C13.428 8.27964 12.5028 7.90791 11.5382 7.90791C10.5735 7.90791 9.64832 8.27964 8.96618 8.94134C8.28405 9.60303 7.90083 10.5005 7.90083 11.4363C7.90083 13.4086 7.48254 15.2892 6.72719 16.9981C6.60033 17.2848 6.36128 17.5108 6.06262 17.6265C5.76396 17.7422 5.43016 17.7381 5.13464 17.615C4.83913 17.492 4.60611 17.2601 4.48685 16.9704C4.36759 16.6806 4.37186 16.3568 4.49871 16.0702C5.14459 14.6057 5.47705 13.0292 5.47595 11.4363ZM16.2922 13.8026C16.4495 13.8268 16.6004 13.8808 16.7362 13.9616C16.872 14.0424 16.99 14.1484 17.0836 14.2734C17.1772 14.3985 17.2444 14.5402 17.2815 14.6905C17.3186 14.8408 17.3248 14.9967 17.2997 15.1493C17.1412 16.1167 16.9205 17.0736 16.6389 18.0143C16.5975 18.1659 16.5252 18.3079 16.4264 18.4319C16.3276 18.556 16.2042 18.6597 16.0635 18.7368C15.9228 18.8139 15.7676 18.863 15.607 18.8811C15.4465 18.8992 15.2838 18.886 15.1286 18.8423C14.9734 18.7985 14.8288 18.7251 14.7032 18.6263C14.5777 18.5276 14.4738 18.4054 14.3976 18.2672C14.3214 18.1289 14.2745 17.9772 14.2597 17.8211C14.2448 17.665 14.2623 17.5075 14.311 17.358C14.5624 16.5191 14.7604 15.6597 14.9051 14.78C14.9558 14.4722 15.1303 14.1965 15.3904 14.0135C15.6505 13.8304 15.9748 13.7538 16.2922 13.8026Z" fill="#003DF6"/>
<path fill-rule="evenodd" clip-rule="evenodd" d="M11.0725 10C11.3452 10 11.6067 10.1332 11.7996 10.3703C11.9924 10.6074 12.1008 10.929 12.1008 11.2643C12.1008 14.0912 11.6278 16.7867 10.7742 19.2344C10.721 19.3869 10.6438 19.5251 10.5471 19.641C10.4503 19.7569 10.336 19.8483 10.2106 19.9098C10.0852 19.9714 9.9511 20.002 9.81606 19.9999C9.68102 19.9978 9.54763 19.963 9.42353 19.8975C9.29943 19.832 9.18703 19.7371 9.09276 19.6182C8.99849 19.4993 8.9242 19.3587 8.87411 19.2045C8.82403 19.0503 8.79914 18.8855 8.80087 18.7194C8.80259 18.5534 8.8309 18.3894 8.88417 18.2368C9.65218 16.0337 10.0469 13.6612 10.0441 11.2643C10.0441 10.929 10.1525 10.6074 10.3453 10.3703C10.5382 10.1332 10.7997 10 11.0725 10Z" fill="#003DF6"/>
</svg>
