<svg width="36" height="36" viewBox="0 0 36 36" fill="none" xmlns="http://www.w3.org/2000/svg">
<path d="M32.8516 13.335L31.2761 6.78C30.9459 5.43 29.7756 4.5 28.4101 4.5H7.56842C6.21799 4.5 5.03261 5.445 4.71751 6.78L3.142 13.335C2.78188 14.865 3.11199 16.425 4.0723 17.655C4.19234 17.82 4.35739 17.94 4.49243 18.09V28.5C4.49243 30.15 5.84287 31.5 7.4934 31.5H28.5002C30.1507 31.5 31.5011 30.15 31.5011 28.5V18.09C31.6362 17.955 31.8012 17.82 31.9213 17.67C32.8816 16.44 33.2267 14.865 32.8516 13.335ZM28.3651 7.485L29.9406 14.04C30.0907 14.67 29.9556 15.3 29.5655 15.795C29.3554 16.065 28.9053 16.5 28.155 16.5C27.2398 16.5 26.4445 15.765 26.3395 14.79L25.4692 7.5L28.3651 7.485ZM19.4973 7.5H22.4382L23.2485 14.28C23.3235 14.865 23.1434 15.45 22.7533 15.885C22.4232 16.275 21.943 16.5 21.3279 16.5C20.3225 16.5 19.4973 15.615 19.4973 14.535V7.5ZM12.7301 14.28L13.5553 7.5H16.4963V14.535C16.4963 15.615 15.671 16.5 14.5607 16.5C14.0505 16.5 13.5854 16.275 13.2252 15.885C12.8501 15.45 12.6701 14.865 12.7301 14.28ZM6.05294 14.04L7.56842 7.5H10.5244L9.65409 14.79C9.53406 15.765 8.7538 16.5 7.83851 16.5C7.10327 16.5 6.63812 16.065 6.44306 15.795C6.03793 15.315 5.90289 14.67 6.05294 14.04ZM7.4934 28.5V19.455C7.61344 19.47 7.71847 19.5 7.83851 19.5C9.14393 19.5 10.3293 18.96 11.1996 18.075C12.0999 18.975 13.3003 19.5 14.6657 19.5C15.9711 19.5 17.1415 18.96 18.0118 18.105C18.8971 18.96 20.0975 19.5 21.4479 19.5C22.7083 19.5 23.9087 18.975 24.809 18.075C25.6793 18.96 26.8646 19.5 28.1701 19.5C28.2901 19.5 28.3951 19.47 28.5152 19.455V28.5H7.4934Z" fill="#202325"/>
</svg>
